<?xml version="1.0" encoding="UTF-8" standalone="no"?>
<svg
  xmlns:dc="http://purl.org/dc/elements/1.1/"
  xmlns:cc="http://creativecommons.org/ns#"
  xmlns:rdf="http://www.w3.org/1999/02/22-rdf-syntax-ns#"
  xmlns:svg="http://www.w3.org/2000/svg"
  xmlns="http://www.w3.org/2000/svg"
  xmlns:sodipodi="http://sodipodi.sourceforge.net/DTD/sodipodi-0.dtd"
  xmlns:inkscape="http://www.inkscape.org/namespaces/inkscape"
  version="1.1"
  x="0px"
  y="0px"
  viewBox="0 0 87.142 77.35"
  enable-background="new 0 0 87.142 77.878"
  xml:space="preserve"
  id="svg3786"
  inkscape:version="0.48.2 r9819"
  width="100%"
  height="100%"
  sodipodi:docname="noun_82171_cc.svg">
  <metadata id="metadata3820">
    <rdf:RDF>
      <cc:Work rdf:about="">
        <dc:format>image/svg+xml</dc:format><dc:type rdf:resource="http://purl.org/dc/dcmitype/StillImage"/></cc:Work>
    </rdf:RDF>
  </metadata><defs id="defs3818"/><sodipodi:namedview
    pagecolor="#ddd"
    bordercolor="#333"
    borderopacity="1"
    objecttolerance="3"
    gridtolerance="10"
    guidetolerance="10"
    inkscape:pageopacity="0"
    inkscape:pageshadow="2"
    inkscape:window-width="640"
    inkscape:window-height="480"
    id="namedview3816"
    showgrid="false"
    inkscape:zoom="2.4243047"
    inkscape:cx="43.571"
    inkscape:cy="48.67375"
    inkscape:window-x="0"
    inkscape:window-y="0"
    inkscape:window-maximized="0"
    inkscape:current-layer="svg3786"/>
  <g id="g3788" transform="translate(0,0.00250008)">
    <g id="g3790">
      <g id="g3792"><path
        d="m 87.092,38.679 c 0,0 -0.016,0.184 -0.048,0.537 -0.019,0.176 -0.098,0.392 -0.162,0.65 -0.106,0.24 -0.208,0.535 -0.4,0.823 -0.698,1.21 -2.308,2.542 -4.586,3.712 -4.583,2.345 -11.761,4.17 -20.459,5.302 C 52.731,50.818 42.44,51.236 31.485,50.374 26.012,49.934 20.365,49.181 14.746,47.802 11.944,47.092 9.138,46.242 6.464,44.988 5.132,44.357 3.826,43.624 2.662,42.655 1.526,41.71 0.438,40.363 0.4,38.677 l 0.049,-0.582 c 0.024,-0.188 0.096,-0.408 0.147,-0.61 0.136,-0.393 0.289,-0.76 0.514,-1.085 0.41,-0.678 0.96,-1.227 1.532,-1.724 1.161,-0.981 2.465,-1.724 3.796,-2.367 2.672,-1.276 5.477,-2.148 8.279,-2.879 5.618,-1.431 11.274,-2.195 16.753,-2.655 5.482,-0.444 10.806,-0.602 15.84,-0.443 5.041,0.142 9.796,0.516 14.153,1.12 8.712,1.173 15.863,3.134 20.449,5.472 2.276,1.181 3.883,2.521 4.578,3.737 0.732,1.207 0.552,2.043 0.602,2.018 z m -0.1,-0.005 C 86.942,38.697 87.11,37.893 86.381,36.725 85.69,35.55 84.09,34.245 81.819,33.104 77.251,30.806 70.061,29.088 61.379,28.13 57.032,27.663 52.299,27.345 47.292,27.279 42.281,27.22 36.995,27.302 31.551,27.763 26.111,28.214 20.505,28.991 14.947,30.34 12.179,31.038 9.41,31.877 6.812,33.093 5.519,33.703 4.264,34.411 3.184,35.309 2.11,36.202 1.232,37.354 1.2,38.677 c 0.014,1.305 0.896,2.499 1.963,3.39 1.076,0.909 2.33,1.628 3.622,2.249 2.595,1.238 5.363,2.099 8.131,2.818 5.556,1.401 11.172,2.189 16.618,2.661 5.449,0.474 10.748,0.596 15.762,0.523 5.017,-0.073 9.757,-0.389 14.107,-0.897 8.696,-0.999 15.86,-2.853 20.43,-5.144 2.27,-1.152 3.867,-2.465 4.555,-3.646 0.725,-1.168 0.554,-1.974 0.604,-1.957 z"
        id="path3794"
        inkscape:connector-curvature="0"/><path
        d="m 54.308,32.951 c 0,0 -0.359,-0.637 -1.031,-1.83 C 52.591,29.936 51.589,28.194 50.231,26.027 48.874,23.861 47.183,21.255 45.094,18.371 43.005,15.491 40.54,12.307 37.537,9.12 36.035,7.53 34.396,5.94 32.572,4.454 30.744,3.005 28.713,1.545 26.341,0.896 25.171,0.613 23.862,0.611 22.883,1.367 c -0.949,0.71 -1.484,1.95 -1.72,3.196 -0.473,2.539 -0.215,5.253 0.236,7.926 0.941,5.371 2.75,10.757 4.894,16.074 2.158,5.317 4.718,10.575 7.546,15.669 2.84,5.1 5.949,10.04 9.325,14.677 3.388,4.616 6.978,9.008 11.013,12.64 2.013,1.793 4.169,3.441 6.52,4.366 1.161,0.452 2.426,0.639 3.456,0.237 l 0.341,-0.149 0.4,-0.267 c 0.139,-0.089 0.191,-0.183 0.293,-0.269 0.094,-0.079 0.184,-0.179 0.265,-0.301 0.364,-0.429 0.586,-0.983 0.793,-1.527 0.701,-2.28 0.564,-4.762 0.317,-7.064 -0.284,-2.319 -0.724,-4.551 -1.253,-6.667 -1.065,-4.235 -2.403,-8.027 -3.685,-11.343 -1.282,-3.319 -2.567,-6.148 -3.668,-8.454 -1.096,-2.309 -2.027,-4.09 -2.658,-5.306 -0.646,-1.209 -0.99,-1.854 -0.99,-1.854 z m 0.088,-0.048 c 0,0 0.353,0.641 1.014,1.842 0.647,1.208 1.602,2.979 2.73,5.277 1.125,2.299 2.456,5.11 3.838,8.401 1.369,3.294 2.809,7.065 3.995,11.311 0.583,2.124 1.113,4.367 1.426,6.739 0.28,2.363 0.491,4.89 -0.249,7.46 -0.226,0.628 -0.473,1.274 -0.923,1.833 -0.177,0.283 -0.521,0.574 -0.775,0.793 l -0.396,0.273 c -0.225,0.132 -0.353,0.166 -0.535,0.252 -1.402,0.535 -2.906,0.253 -4.172,-0.233 C 57.776,75.832 55.583,74.126 53.517,72.292 49.4,68.577 45.767,64.154 42.403,59.462 39.041,54.764 35.951,49.764 33.144,44.625 30.33,39.477 27.795,34.186 25.658,28.822 23.536,23.46 21.749,18.032 20.831,12.587 20.394,9.873 20.138,7.12 20.65,4.458 20.916,3.151 21.463,1.8 22.605,0.953 c 1.123,-0.848 2.633,-0.818 3.853,-0.498 2.497,0.721 4.516,2.231 6.351,3.718 1.824,1.524 3.45,3.142 4.939,4.757 2.966,3.244 5.412,6.447 7.497,9.338 2.078,2.898 3.759,5.515 5.107,7.689 1.35,2.175 2.344,3.923 3.025,5.113 0.663,1.194 1.019,1.833 1.019,1.833 z"
        id="path3796"
        inkscape:connector-curvature="0"/><path
        d="m 51.85,47.484 c 0,0 0.476,-0.555 1.368,-1.594 0.88,-1.05 2.175,-2.586 3.747,-4.603 1.573,-2.015 3.445,-4.495 5.442,-7.443 1.994,-2.947 4.144,-6.351 6.115,-10.262 0.981,-1.955 1.916,-4.038 2.69,-6.26 0.738,-2.213 1.416,-4.62 1.216,-7.072 C 72.294,9.054 71.85,7.823 70.805,7.161 69.814,6.512 68.466,6.432 67.214,6.636 c -2.548,0.422 -5.011,1.592 -7.369,2.929 -4.727,2.718 -9.171,6.258 -13.436,10.089 -4.262,3.845 -8.326,8.044 -12.152,12.445 -3.82,4.407 -7.404,9.019 -10.608,13.774 -3.181,4.76 -6.084,9.635 -8.119,14.667 -0.998,2.505 -1.811,5.093 -1.877,7.619 -0.029,1.245 0.228,2.498 0.957,3.33 l 0.257,0.27 0.387,0.285 c 0.131,0.1 0.237,0.117 0.353,0.184 0.106,0.062 0.231,0.112 0.373,0.146 0.528,0.196 1.124,0.215 1.706,0.224 2.382,-0.119 4.668,-1.096 6.747,-2.114 2.083,-1.059 4.03,-2.234 5.838,-3.455 3.616,-2.447 6.724,-4.999 9.403,-7.337 2.682,-2.338 4.902,-4.512 6.693,-6.334 1.796,-1.819 3.152,-3.302 4.079,-4.31 0.915,-1.02 1.404,-1.564 1.404,-1.564 z m 0.075,0.066 c 0,0 -0.482,0.55 -1.385,1.582 -0.915,1.021 -2.253,2.523 -4.027,4.368 -1.777,1.842 -3.964,4.053 -6.585,6.476 -2.629,2.412 -5.681,5.053 -9.267,7.617 -1.798,1.273 -3.725,2.537 -5.847,3.641 -2.126,1.07 -4.429,2.132 -7.096,2.313 -0.667,0.002 -1.359,-0.009 -2.038,-0.242 -0.326,-0.07 -0.718,-0.293 -1.01,-0.458 l -0.392,-0.28 c -0.201,-0.167 -0.277,-0.275 -0.42,-0.417 -0.982,-1.135 -1.23,-2.645 -1.206,-4.001 0.079,-2.767 0.934,-5.41 1.952,-7.978 2.086,-5.139 5.002,-10.063 8.264,-14.827 3.268,-4.765 6.91,-9.374 10.785,-13.771 3.873,-4.399 7.984,-8.592 12.295,-12.431 4.315,-3.825 8.806,-7.359 13.61,-10.081 2.401,-1.338 4.901,-2.518 7.578,-2.947 1.319,-0.196 2.776,-0.144 3.962,0.641 1.18,0.766 1.668,2.195 1.784,3.451 0.175,2.593 -0.555,5.006 -1.326,7.239 -0.809,2.234 -1.775,4.316 -2.785,6.267 -2.036,3.895 -4.211,7.289 -6.216,10.235 -2.014,2.943 -3.9,5.416 -5.483,7.426 -1.583,2.011 -2.887,3.543 -3.772,4.589 -0.896,1.035 -1.375,1.588 -1.375,1.588 z"
        id="path3798"
        inkscape:connector-curvature="0"/></g>
    </g><circle
      stroke-miterlimit="3"
      cx="30.608999"
      cy="3.02"
      r="2.5480001"
      id="circle3800"
      sodipodi:cx="30.608999"
      sodipodi:cy="3.02"
      sodipodi:rx="2.5480001"
      sodipodi:ry="2.5480001"
      style="stroke:#333;stroke-miterlimit:3"
      d="m 33.156999,3.02 c 0,1.4072216 -1.140778,2.5480001 -2.548,2.5480001 -1.407221,0 -2.548,-1.1407785 -2.548,-2.5480001 0,-1.4072216 1.140779,-2.54800012 2.548,-2.54800012 1.407222,0 2.548,1.14077852 2.548,2.54800012 z"/><circle
      stroke-miterlimit="10"
      cx="24.118"
      cy="71.052002"
      r="2.5480001"
      id="circle3802"
      sodipodi:cx="24.118"
      sodipodi:cy="71.052002"
      sodipodi:rx="2.5480001"
      sodipodi:ry="2.5480001"
      style="stroke:#333;stroke-miterlimit:10"
      d="m 26.666,71.052002 c 0,1.407222 -1.140778,2.548 -2.548,2.548 -1.407222,0 -2.548,-1.140778 -2.548,-2.548 0,-1.407222 1.140778,-2.548 2.548,-2.548 1.407222,0 2.548,1.140778 2.548,2.548 z"/><circle
      stroke-miterlimit="10"
      cx="83.863998"
      cy="43.153999"
      r="2.5480001"
      id="circle3804"
      sodipodi:cx="83.863998"
      sodipodi:cy="43.153999"
      sodipodi:rx="2.5480001"
      sodipodi:ry="2.5480001"
      style="stroke:#333;stroke-miterlimit:10"
      d="m 86.411999,43.153999 c 0,1.407222 -1.140779,2.548 -2.548001,2.548 -1.407221,0 -2.548,-1.140778 -2.548,-2.548 0,-1.407221 1.140779,-2.548 2.548,-2.548 1.407222,0 2.548001,1.140779 2.548001,2.548 z"/></g>
</svg>
